<?xml version="1.0" encoding="utf-8"?>
<!-- Generator: Adobe Illustrator 23.0.1, SVG Export Plug-In . SVG Version: 6.00 Build 0)  -->
<svg version="1.1" xmlns="http://www.w3.org/2000/svg" xmlns:xlink="http://www.w3.org/1999/xlink" x="0px" y="0px"
	 viewBox="0 0 125.25 111" style="enable-background:new 0 0 125.25 111;" xml:space="preserve">
<style type="text/css">
	.st0{fill:none;stroke:#FCE389;stroke-miterlimit:10;}
	.st1{fill:none;stroke:#0E2232;stroke-miterlimit:10;}
	.st2{fill:#FCE389;}
</style>
<g id="Layer_1">
</g>
<g id="Layer_2">
	<path class="st0" d="M46.64,93.16c0.73-1.28,0.38-0.88,1.02-2.2c0.71-1.46,1.37-2.93,2.02-4.42c0.66-1.52,1.28-3.04,1.89-4.58
		c0.58-1.46,1.14-2.93,1.69-4.41c0.28-0.77,0.56-1.54,0.84-2.31c0.71-1.99,2.87-2.84,4.75-3.33c2.98-0.78,6.29-0.65,9.17,0.49
		c0.31,0.12,0.63,0.26,0.96,0.27c1.43,0.05,0.81-1.65,0.47-2.41c-0.58-1.33-1.69-2.32-2.93-3.06c-2.96-1.76-7.34-3.2-10.18-0.41
		c-1.03,1.01-1.54,2.44-1.79,3.83c-0.23,1.26-0.16,2.57-0.08,3.84"/>
	<path class="st0" d="M65.2,66.52c3.16-2.13,6.97-4.7,8.99-5.89c3.85-2.29,4.59-2.51,5.06-2.63c2.67-0.66,5.43-0.5,8.15-0.46
		c2.72,0.04,5.24-0.35,7.9-0.79c1.03-0.17,2.15,0.1,3.13-0.34c0.04-0.02,0.07-0.03,0.09-0.07c0.13-0.2-0.32-0.46-0.44-0.53
		c-0.41-0.23-0.86-0.37-1.28-0.58c-0.71-0.35-1.42-0.69-2.08-1.14c-0.44-0.29-2.06-1.41-0.69-1.65c2.68-0.46,5.33-1.06,8.04-1.36
		c3.45-0.38,7.01-0.54,10.43,0.1c1.76,0.33,2.52,0.66,5.44,1.31c0.58,0.13,1.09,0.37,1.69,0.39c0.05,0,0.11,0,0.15-0.04
		c0.03-0.03,0.02-0.08,0.01-0.13c-0.16-0.93-1.06-1.45-1.75-1.97c-2.51-1.86-5.42-3.27-8.35-4.31c-2.34-0.83-4.27-1.21-5.25-1.38
		c-1.69-0.29-3.86-0.65-6.69-0.38c-3.85,0.38-6.59,1.72-7.25,2.06c-4.94,2.52-7.99,6.98-11.25,11.25"/>
	<path class="st0" d="M60.61,65.25c1.89-1.88,3.71-3.8,5.81-5.44c0.95-0.74,1.96-1.42,3.01-2.01c1.04-0.58,2.1-1.18,3.26-1.48
		c1.33-0.35,2.68-0.6,4.02-0.93c1.29-0.32,2.85-0.69,3.28-2.15c0.12-0.42,0.09-0.89-0.16-1.25c-0.27-0.39-0.73-0.58-1.1-0.86
		c-0.43-0.33-0.84-0.69-1.23-1.06c-0.36-0.35-0.71-0.8-1.16-1.05c-0.28-0.15-0.62-0.21-0.91-0.08c-0.79,0.37-0.91,1.67-1.09,2.41
		c-0.38,1.55-0.27,3.06-0.27,4.63"/>
	<path class="st0" d="M79.33,51.52c1.84-2.03,4.13-3.63,5.8-5.79c1.15-1.48,2.38-2.97,3.93-4.06c1.56-1.09,3.42-1.52,5.2-2.12
		c3.78-1.28,5.34-4.35,7.7-7.3c1.94-2.43,4.46-4.36,6.26-6.89c0.56-0.78,1.05-1.65,1.14-2.6c0.07-0.68-0.11-1.42-0.62-1.86
		c-0.54-0.46-1.34-0.51-2.03-0.33c-0.69,0.17-1.32,0.52-1.99,0.78c-0.19,0.07-0.41,0.14-0.6,0.06c-0.34-0.15-0.33-0.63-0.46-0.98
		c-0.22-0.59-0.93-0.87-1.55-0.77c-0.62,0.1-1.14,0.49-1.6,0.92c-1.21,1.14-2.08,2.57-2.99,3.96c-1.48,2.26-3.08,4.45-4.4,6.81
		c-1.7,3.06-2.3,6.08-2.85,9.49"/>
	<path class="st0" d="M79.73,51.09c0.97-2.06,1.58-4.28,2.57-6.33c1.03-2.13,2.33-4.12,3.37-6.24c1.14-2.3,2.03-4.78,2.04-7.35
		c0.02-4.25-2.33-8.11-4.69-11.63c-1.8-2.68-3.66-5.35-5.94-7.64c-0.14,2.44,0.88,4.78,1.82,7.03c1.25,2.99,2.41,6.04,3.07,9.21
		c0.96,4.59,0.88,9.34,1.78,13.94"/>
	<path class="st0" d="M59.63,65.25c1.56-3.05,3.93-7.99,6.81-11c0.35-0.37,0.71-0.72,1.06-1.06c1.81-0.63,5.19-2.02,7-2.64"/>
	<path class="st0" d="M66.8,53.87c-0.03-0.83,0.01-4.17,0.26-5.5c0.17-0.9,0.61-3.14,2.13-5.38c1.43-2.11,3.11-3.18,4.81-4.25
		c1.55-0.98,5.41-2.71,8.9-3.51"/>
	<path class="st0" d="M83.19,38.24c-0.46,1.02-2.13,4.36-2.94,5.57c-1.11,1.67-3.23,4.07-4.25,5.04"/>
	<path class="st0" d="M56.37,46.57c-1.01,0.53-1.91,1.29-2.62,2.18c-0.34,0.43-0.91,0.96-0.94,1.52c-0.04,0.62,0.52,1.45,0.77,2.01
		c0.06,0.13,0.12,0.27,0.19,0.39c0.1,0.16,0.37,0.55,0.6,0.5c0.09-0.02,0.16-0.08,0.23-0.14c0.61-0.52,1.21-1.07,1.84-1.57
		c0.3-0.24,0.93-0.51,1.06-0.89c0.08-0.25,0.17-0.5,0.25-0.75c-0.31-0.75-0.63-1.5-0.94-2.25C56.67,47.23,56.53,46.89,56.37,46.57z"
		/>
	<path class="st0" d="M57.75,65.82c-0.16-0.73-0.9-5.85,1.13-8.38c0.45-0.56,0.95-0.99,1.44-1.31c0.62-0.42,1.3-1.82,1.74-2.45
		c0.65-0.91,1.23-1.88,1.53-2.97c0.44-1.62-0.11-3.07-0.61-4.62c-0.33-1.04-0.71-2.06-1.13-3.06c-0.24-0.58-1.28-1.94-0.55-2.42
		c1.07-0.71,2.1-1.47,3.15-2.22c1.34-1.16,2.74-2.27,4.03-3.48c-3.34,0.38-6.62,1.23-9.91,1.92c-0.03,0.01-1.88-3.18-2.07-3.46
		c-1.2-1.8-3.12-3.01-4.86-4.22c-1.01-0.7-2.22-1.49-3.62-2.31c0.78,1.69,1.62,3.36,2.5,5c0.73,1.35,1.47,2.68,2.12,4.07
		c0.39,0.84,0.76,1.69,1.08,2.55c0.29,0.76,0.79,1.75,0.72,2.58c-0.06,0.72-0.61,1.29-1.03,1.82c-0.72,0.91-1.54,1.73-2.4,2.51
		c-0.32,0.29-0.86,0.97-1.27,1.1c-0.61,0.19-1.2-0.7-1.6-1.07c0.12-1.28,0.14-3.06-0.25-5.12c-0.27-1.44-0.66-2.89-1.38-4.18
		c-0.79-1.42-2.02-2.31-3.18-3.41c-0.73-0.69-2.97-1.92-2.87-3.06c0.02-0.26,0.15-0.5,0.27-0.74c0.69-1.34,1.37-2.68,2.22-3.93
		c0.84-1.24,1.62-2.16,4.25-5c1.29-1.4,2.94-3.16,4.88-5.19c-0.91,0.22-2.12,0.56-3.5,1.13c-3.79,1.55-6.17,3.66-6.75,4.19
		c-1.62,1.48-3.43,3.13-4.44,5.94c-0.78,2.17-0.71,4-0.69,4.44c0.03,0.53,0.12,1.49,0.69,3.31c0.8,2.53,2.06,4.81,3.29,7.14
		c0.12,0.22,0.24,0.45,0.27,0.7c0.3,2.22-3.13,0.31-3.71,1.53c-0.38,0.8-0.11,2.84,0.58,3.42c0.41,0.34,0.96,0.45,1.42,0.7
		c0.53,0.29,0.98,0.68,1.54,0.92c0.03-0.7-0.1-2.19,0.55-2.64c0.89-0.61,0.96-0.65,1.79,0.04c0.63,0.52,1.24,1.06,1.83,1.62
		c1.3,1.22,2.42,2.43,3.38,3.56c0.75,1.15,1.5,2.29,2.25,3.44c0.55,1.45,0.91,2.66,1.13,3.5c0.29,1.12,0.55,2.27,0.75,3.41
		c0.22,1.27,0.15,2.59,0.6,3.81c0.02,0.05,0.04,0.1,0.08,0.12c0.05,0.02,0.1,0,0.15-0.02c0.46-0.21,0.82-0.53,1.17-0.88
		c2.02-2.07,0.95-5.36,2.13-7.79c0.27-0.55,1.36-2.58,1.91-1.2c0.24,0.62,0.4,1.34,0.74,1.92"/>
	<path class="st0" d="M49.44,87.08c0-5.2-0.38-13.92-0.35-19.12c0.01-1.3,0.01-2.6,0.02-3.9c0.01-1.23,0.24-2.69,0.04-3.91
		c-0.23-1.33-2.74-1.15-3.81-1.16c-0.26,0-0.52,0-0.79,0c-0.58-0.01-5.96-0.14-5.73,0.72c0.06,0.2,0.24,0.34,0.42,0.46
		c1.66,1.1,3.54,1.97,5.27,3.01c0.87,0.52,1.75,1.09,2.5,1.78c0.71,0.66,1.23,1.5,2.04,2.05"/>
	<path class="st0" d="M52.34,79.88c0.42-3.58,0.51-11.28,0.92-14.87"/>
	<path class="st0" d="M47.75,58.97c-0.71-1.17-1.36-4.83-1.25-7.22c0.02-0.4,0.05-2.55,0.11-2.9"/>
	<path class="st0" d="M40.76,48.16c0.99,0.97,2.88,4,3.86,5.59c0.36,0.58,2.22,4.11,2.49,4.66"/>
	<path class="st0" d="M38.27,42.75c-0.04-1.38-0.19-5.8-0.23-7.18"/>
	<path class="st0" d="M37.38,42.75c-1.95-4.09-3.06-8.71-3.31-11.06c-0.25-2.31-0.16-4.63-0.25-6.95c-0.13-3.14-0.54-6.31-1.63-9.28
		c-0.37-1.01-0.87-3.4-1.9-3.91c-1.26-0.62-1.49,1.76-2.4,1.57c-0.38-0.08-0.5-0.87-0.67-1.17c-0.36-0.61-1.4-1.59-2.2-1.21
		c-1.56,0.76-0.34,4.03,0.01,5.18c0.54,1.78,1.06,3.57,1.58,5.36c0.46,1.59,0.78,3.33,1.63,4.78c1.38,2.35,3.64,4.09,5.84,5.62"/>
	<path class="st0" d="M43.76,58.97c-1.3-1.46-3.63-4.44-4.88-6.4c-1.4-2.19-2.33-4.09-2.88-5.31c-0.43-0.96-0.76-1.79-1-2.44
		c-0.53-1.46-1.36-3.55-2.63-5.94c-1.22-2.31-2.49-4.71-4.65-6.28c-2.28-1.66-5.13-2.29-7.85-2.78C14.54,28.85,9.96,29.74,7,30.63
		c3.06,0.82,6.09,1.74,9.09,2.76c2.04,0.7,4.13,1.41,5.97,2.55c1.98,1.23,3.41,2.55,4.31,3.5c-1.52,0.04-3.04,0.08-4.56,0.13
		c0.61,0.64,1.48,1.51,2.63,2.44c1.71,1.39,3.57,2.59,5.58,3.49c1.9,0.85,4.02,1.08,5.98,1.76"/>
	<g>
		<path class="st1" d="M51.48,22.89c1.83-0.28,3.71-0.43,5.62-0.43c7.91,0,15.21,2.55,21.15,6.88"/>
		<path class="st1" d="M28.85,50.57"/>
		<path class="st1" d="M92.84,62.27c-1.92,18.04-17.2,32.09-35.74,32.09c-19.86,0-35.95-16.1-35.95-35.95
			c0-3.81,0.59-7.47,1.69-10.91"/>
	</g>
	<path class="st2" d="M7,30.63c0.04-0.32,6.53-1.25,7.44-1.22c1.03,0.04,2.81-0.01,4.48,0.25c1.81,0.28,3.05,0.57,4.39,0.91
		c1.39,0.35,2.08,0.73,3.03,1.17c1.4,0.65,2.47,1.88,3.04,2.38c0.41,0.36,0.97,1.41,1.51,2.08c0.65,0.81,0.54,1.03,1.83,3.32
		c1.1,1.96,0.92,2,1.27,2.71c0.85,1.71,0.43,1.7,1.13,2.87c0.32,0.55,0.76,1.92,0.63,2.07c-0.14,0.16-2.25-0.44-2.76-0.73
		c-1.12-0.26-2.56-0.79-3.94-1.41c-2.79-1.26-6.57-3.9-7.06-5.46c4.2,0.21,1.36-0.4,4.18-0.23c0.1,0.01-0.04-0.3-0.71-0.79
		c-0.38-0.27-0.21-0.43-0.74-0.66c-1.76-0.77,0.05-0.18-1.22-0.97c-0.87-0.54-1.57-0.92-2.49-1.56c-1.05-0.74-2.5-1.09-3.42-1.43
		C12.79,32.1,6.95,31.06,7,30.63z"/>
	<path class="st2" d="M33.87,27.69c-0.02-1.53-0.02-3.65-0.24-5.54c-0.09-0.75-0.3-1.81-0.81-4.64c-0.56-3.14-2.27-6.02-2.84-6.05
		c-0.2-0.01-0.56,0.73-1.56,1.45c-0.57,0.41-0.31,0.23-0.54,0.21c-0.27-0.03,0-0.5-0.57-0.93c-0.59-0.45-0.82-0.95-1.26-1.35
		c-0.41-0.37-1.72,1.24-1.81,1.27c-0.23,0.09,0.29,2.12,0.53,3.03c0.5,1.89,0.92,3.4,1.52,5.08c0.93,2.65,1.49,4.95,1.75,5.49
		c0.5,1.05,1.53,1.9,2.47,3.15c0.35,0.47,3.15,2.53,3.51,2.34C34.17,31.13,34.24,28.95,33.87,27.69z"/>
	<path class="st2" d="M40.46,59.08c1.45-0.54,2.65-0.23,5.13-0.1c0,0,1.2-0.07,2.8,0.31c0.3,0.07,0.67,0.96,0.79,1.07
		c0.5,0.48-0.1,1.45-0.04,3.01c0.04,1.09,0,3.17-0.2,3.31c-0.42,0.3-2.67-2.57-5.18-3.97c-2.2-1.22-4.98-2.54-4.92-3.03
		C38.85,59.56,40.21,59.18,40.46,59.08z"/>
	<path class="st2" d="M94.35,30.17c2.29-3.13,0.82-3.94,3.68-6.42c0.9-0.78,1.95-2.25,2.48-3.18c0.53-0.92,3.53-1.7,2.89,0.1
		c-0.31,0.85,0.85,0.6,1.5,0.89c0.46,0.21,0.53-0.62,1.37-0.87c1.13-0.34,2.07,0,2.47,0.2c0.36,0.18,0.66,1.82,0.64,2.22
		c-0.05,0.85-1.1,2.49-1.78,3.07c-1.02,0.85-2.03,2.2-2.95,3.16c-1.49,1.56-1.29,1.38-3.81,4.38c-1.4,1.67-2.46,3.13-3.08,3.72
		c-1.16,1.11-5.7,3.43-7.01,3.32C89.54,40.65,91.84,33.6,94.35,30.17z"/>
	<path class="st2" d="M56.16,67c0.5-0.29,1.67-1.3,3.06-1.66c0.95-0.24,3.14,0.21,4.92,0.71c1.39,0.39,2.21,1.08,3.26,1.76
		c0.21,0.14,1.17,1.33,2.12,2.65c0.32,0.45,0.27,1.52,0.07,1.98c-0.19,0.45-2.78-0.24-5.48-0.94c-2.5-0.64-3.68-0.11-4.66,0.28
		c-0.65,0.26-1.84,0.14-2.83,0.8c-0.75,0.5-1.82,1.15-2,1.04C54.19,73.36,53.95,68.31,56.16,67z"/>
	<path class="st2" d="M80.05,57.83c-0.59-0.99,3.49-6.49,6.63-8.5c1.43-0.91,2.24-1.96,4.72-3.01c2.45-1.03,4-1.38,5.4-1.56
		c0.99-0.13,1.86-0.4,6.74,0.15c4.07,0.46,4.78,1.03,5.84,1.41c1.22,0.44,1.95,0.51,4.73,2c3.09,1.66,5.74,4.33,5.67,4.51
		c-0.08,0.23-4.43-1.18-7.81-1.75c-2.18-0.37-4.82-0.88-9.89,0c-4.94,0.86-5.94,0.88-7.95,1.35c-1.04,0.24-0.7,0.24-0.49,0.74
		c0.11,0.25,0.09,0.26,0.6,0.58c1.74,1.11,4.34,1.91,4.26,2.39c-0.06,0.35-2.84,1.01-8.25,1.29c-1.98,0.1-3.74,0.01-5.73,0.06
		C82.96,57.53,80.24,58.13,80.05,57.83z"/>
	<path class="st2" d="M74.06,55.97c-0.45-0.37-0.04-2.31,0.4-5.25c0.03-0.23,0.67-1.72,0.96-1.79c0.19-0.05,1.05,0.15,1.31,0.37
		c0.33,0.28,0.49,0.46,0.76,0.76c0.35,0.4,0.61,0.76,1.23,1.06c0.29,0.14,0.76,0.44,0.87,0.61c0.21,0.31,0.61,1.19,0.39,1.51
		c-0.26,0.38-1.25,1.58-1.72,1.69C75.6,55.54,74.19,56.07,74.06,55.97z"/>
	<path class="st2" d="M78.25,17.38c-1.12-2.38-1.3-5.4-1.18-5.47c0.08-0.04,1.69,1.95,2.52,3.04c0.78,1.03,1.47,1.72,2.02,2.54
		c0.7,1.04,0.87,1.13,2.01,2.97c1.14,1.84,1.46,2.35,2.03,3.41c0.64,1.19,0.87,2.27,0.97,2.51c0.29,0.71,0.55,1.04,0.77,2.05
		c0.05,0.24,0.28,1.86,0.29,3.25c0.01,0.97-0.42,2.5-0.47,2.88c-0.21,1.47-0.69,2-0.91,2.59c-0.39,1.01-0.47,0.74-1.12,2.32
		c-0.28,0.69-1.14,2.25-1.25,2.24c-0.29-0.03-0.94-4.38-1.04-6.48c-0.11-2.23-0.32-3.63-0.8-6.45c-0.64-3.75-1.3-5.28-2.22-7.43
		C79.51,20.5,78.85,18.65,78.25,17.38z"/>
	<path class="st2" d="M67.04,48.54c0.86-2.89,1.83-5,2.64-6.2c1.07-1.59,2.56-2.31,3.71-3.19c1.7-1.3,3.42-1.79,4.51-2.29
		c1.66-0.75,3.39-1.21,4.49-1.49c0.18,0.4,0.6,2.8,0.51,3.5c-0.12,0.91-0.73,1.8-1.18,2.35c-1.34,1.65-0.53,1.37-2.12,3.51
		c-1.19,1.6-2.25,2.8-2.89,3.41c-1.1,1.05-2.17,2.04-3.08,2.58c-1.2,0.71-1.25,0.41-2.78,1.21c-1.81,0.95-3.42,1.62-3.78,1.39
		C66.81,53.14,66.44,50.54,67.04,48.54z"/>
	<path class="st2" d="M37.23,26.42c0.37-1.27,1.31-2.83,2.28-4.07c0.86-1.1,0.77-1.11,3.9-3.59c0.76-0.6,2.42-1.48,4.14-2.45
		c0.45-0.25,4.31-1.61,4.41-1.47c0.1,0.13-2.48,2.69-3.21,3.4c-1.96,1.91-2.77,3.02-3.14,3.4c-0.98,1.02-1.84,2.05-3.27,4.2
		c-1.21,1.82-1.5,2.18-1.71,3.18c-0.15,0.69,0.26,1.01,0.52,1.9c0.34,1.18,1.66,1.28,3.15,2.64c1.56,1.42,2.24,2.94,2.98,4.36
		c1.08,2.05,0.83,4.17,0.83,4.17c0.03,0.57-0.22,1.38,0.01,3.13c0.06,0.47,0.54,0.66,0.96,1.09c0.55,0.56,1.03-0.17,1.1-0.17
		c0.5-0.01,0.71-0.79,0.96-0.95c1.15-0.71,0.88-0.92,1.65-1.64c1.54-1.44,0.97-1.26,1.26-1.83C54.5,40.84,54,39.77,54,39.16
		c0-0.5-0.37-0.77-1.12-2.73c-0.81-2.12-1.14-3.34-2.38-4.62c-0.69-0.72-0.83-1.26-1.38-2.03c-0.38-0.54-0.69-2.61-0.63-2.68
		c0.18-0.2,5.03,2.58,6.57,4.61c0.29,0.38,0.62,0.1,2.97,4.24c0.57,1,1.18,0.41,1.84,0.58c0.7,0.18,0.71,0.05,2.52-0.56
		c1.38-0.47,0.65,0.02,2.64-0.61c0.41-0.13,5.29-0.95,2.52,0c-0.18,0.06-1.86,1.4-3.9,3.58c-0.67,0.72-2.57,1.85-2.61,2.31
		c-0.1,1.26,1.28,1.74,1.1,2.51c-0.19,0.81-2.82,0.75-5.58,1.68c-1.4,0.47-3.25,1.09-5.19,2.5c-1.02,0.74-1.43,1.24-2.25,1.25
		c-1.3,0.01-2.8-0.58-3.33-1.17c-1.03-1.15-1.07-1.02-2.04-1.74c-0.37-0.27-0.47-1.47-1.56-1.22c-0.63,0.15-0.74,0.01-1.15,0.79
		c-0.14,0.27-0.07,1.95-0.27,2.06c-0.45,0.23-2.73-0.89-3.1-1.5c-0.29-0.48-0.99-1.95-0.62-2.37c0.32-0.36,0.14-1.18,1.98-1.28
		c1.33-0.07,1.49-0.07,1.61-0.2c0.48-0.59,0.36-1.09-0.04-1.79c-1.41-2.45-2.98-5-3.48-7.6C36.57,30.39,36.84,27.74,37.23,26.42z"/>
	<path class="st2" d="M55.59,44.48c0.31,1.24,0.74,2.15,1.09,2.78c0.4,0.71,0.81,1.23,0.89,2.13c0.03,0.33,0.08,0.91-0.25,1.44
		c-0.34,0.56-0.66,0.33-1.49,1.13c-0.45,0.44-0.61,0.75-1.13,0.98c-0.24,0.11-0.33,0.1-0.44,0.22c-0.35,0.39-0.09,1.2,0.2,1.68
		c0.12,0.19,0.44,0.73,1.13,0.91c0.09,0.02,0.8,0.2,1.41-0.19c0.56-0.35,0.59-0.89,0.91-0.89c0.28,0,0.5,0.42,0.67,0.76
		c0.45,0.87,0.29,1.36,0.55,1.48c0.43,0.2,1.37-0.95,1.86-1.55c0.22-0.27,0.98-1.23,1.82-2.88c0.44-0.86,0.66-1.3,0.78-1.86
		c0.23-1.09,0.07-2.04-0.02-2.49c-0.04-0.22-0.19-0.7-0.48-1.66c-0.28-0.92-0.43-1.39-0.58-1.71c-0.32-0.67-0.79-1.31-1.11-1.59
		C60.36,42.29,57.95,42.83,55.59,44.48z"/>
	<path class="st2" d="M48.91,47.72c1.26,0.03,1.4,0.07,1.52-0.05c0.45-0.42,0.75-0.71,1.24-1.1c0.29-0.23,0.92-0.48,1.59-0.84
		c0.36-0.2,0.88-0.32,0.94-0.35c0.84-0.41,0.93-0.05,1.22-0.23c0.15-0.1,1.43,0.11,1.57,0.16c0.08,0.03,0.65,1.71-0.8,1.36
		c-0.27-0.06-0.62,0.41-1.38,0.97c-0.73,0.54-0.41,0.65-1.35,1.45c-0.34,0.29-0.32,0.39-0.48,0.79c-0.06,0.16-0.05,0.26,0,0.78
		c0.03,0.31,0.1,0.68,0.75,1.8c0.36,0.63,0.87,0.87,1.13,1.42c0.2,0.43,0.96-0.13,1.22,0.36c0.27,0.52,0.64,0.43,0.91,0.56
		c0.47,0.23-0.13,0.98-0.33,1.35c-0.09,0.17-0.29,0.7-0.45,1.17c-0.14,0.39-0.19,0.87-0.25,1.46c-0.18,1.64-0.28,2.96-0.77,4.28
		c-0.11,0.3-1.57,1.71-1.92,1.66c-0.11-0.02-0.47-0.93-0.58-1.42c-0.25-1.05-0.31-2.12-0.29-2.44c0,0-0.38-1.22-0.6-2.75
		c-0.1-0.68-0.01-1.32-1.02-3.36c-1.48-2.98-1.69-2.99-2.13-3.49c-0.76-0.85-2.26-3.12-2.15-3.29
		C46.57,47.83,48.14,47.7,48.91,47.72z"/>
</g>
</svg>
